<svg width="16" height="16" viewBox="0 0 16 16" fill="none" xmlns="http://www.w3.org/2000/svg">
<path d="M1.03517 8.95H6.31164C6.79532 8.95 7.19106 8.55427 7.19106 8.07059V1.0353C7.19106 0.551619 6.79532 0.155884 6.31164 0.155884H1.03517C0.551497 0.155884 0.155762 0.551619 0.155762 1.0353V8.07059C0.155762 8.55427 0.551497 8.95 1.03517 8.95ZM1.03517 15.9853H6.31164C6.79532 15.9853 7.19106 15.5896 7.19106 15.1059V11.5882C7.19106 11.1046 6.79532 10.7088 6.31164 10.7088H1.03517C0.551497 10.7088 0.155762 11.1046 0.155762 11.5882V15.1059C0.155762 15.5896 0.551497 15.9853 1.03517 15.9853ZM9.82929 15.9853H15.1058C15.5894 15.9853 15.9852 15.5896 15.9852 15.1059V8.07059C15.9852 7.58691 15.5894 7.19118 15.1058 7.19118H9.82929C9.34561 7.19118 8.94988 7.58691 8.94988 8.07059V15.1059C8.94988 15.5896 9.34561 15.9853 9.82929 15.9853ZM8.94988 1.0353V4.55294C8.94988 5.03662 9.34561 5.43235 9.82929 5.43235H15.1058C15.5894 5.43235 15.9852 5.03662 15.9852 4.55294V1.0353C15.9852 0.551619 15.5894 0.155884 15.1058 0.155884H9.82929C9.34561 0.155884 8.94988 0.551619 8.94988 1.0353Z" fill="black"/>
</svg>
