<svg width="5" height="19" viewBox="0 0 5 19" fill="none" xmlns="http://www.w3.org/2000/svg">
<path d="M4.81855 16.1085C4.81855 16.6553 4.60734 17.1797 4.23138 17.5664C3.85542 17.9531 3.34551 18.1703 2.81382 18.1703C2.28213 18.1703 1.77222 17.9531 1.39626 17.5664C1.02029 17.1797 0.809082 16.6553 0.809082 16.1085C0.809082 15.5616 1.02029 15.0372 1.39626 14.6505C1.77222 14.2638 2.28213 14.0466 2.81382 14.0466C3.34551 14.0466 3.85542 14.2638 4.23138 14.6505C4.60734 15.0372 4.81855 15.5616 4.81855 16.1085ZM4.81855 9.23567C4.81855 9.7825 4.60734 10.3069 4.23138 10.6936C3.85542 11.0803 3.34551 11.2975 2.81382 11.2975C2.28213 11.2975 1.77222 11.0803 1.39626 10.6936C1.02029 10.3069 0.809082 9.7825 0.809082 9.23567C0.809082 8.68884 1.02029 8.1644 1.39625 7.77773C1.77222 7.39106 2.28213 7.17383 2.81382 7.17383C3.34551 7.17383 3.85542 7.39106 4.23138 7.77773C4.60734 8.1644 4.81855 8.68884 4.81855 9.23567ZM4.81855 2.36289C4.81855 2.90972 4.60734 3.43415 4.23138 3.82082C3.85542 4.20749 3.34551 4.42472 2.81382 4.42472C2.28213 4.42472 1.77222 4.20749 1.39625 3.82082C1.02029 3.43415 0.809081 2.90972 0.809081 2.36289C0.809081 1.81605 1.02029 1.29162 1.39625 0.904947C1.77222 0.518278 2.28213 0.30105 2.81382 0.30105C3.34551 0.30105 3.85542 0.518278 4.23138 0.904947C4.60734 1.29162 4.81855 1.81605 4.81855 2.36289Z" fill="#A2A7B4"/>
</svg>
