<svg width="20" height="18" viewBox="0 0 20 18" fill="none" xmlns="http://www.w3.org/2000/svg">
<path fill-rule="evenodd" clip-rule="evenodd" d="M0.25 6.01872C0.25 2.7595 2.8899 0.25 5.98857 0.25C7.58587 0.25 8.99139 1.0612 10 2.11083C11.0086 1.0612 12.4141 0.25 14.0114 0.25C17.1101 0.25 19.75 2.7595 19.75 6.01872C19.75 8.25132 18.871 10.2147 17.6531 11.8743C16.4374 13.531 14.8471 14.9371 13.3244 16.0796C12.7429 16.516 12.1545 16.9186 11.616 17.2156C11.1104 17.4945 10.529 17.75 10 17.75C9.471 17.75 8.88961 17.4945 8.38399 17.2156C7.84551 16.9186 7.25714 16.516 6.67556 16.0796C5.15291 14.9371 3.56263 13.531 2.34689 11.8743C1.12904 10.2147 0.25 8.25132 0.25 6.01872ZM5.98857 2.06034C3.67169 2.06034 1.92143 3.90581 1.92143 6.01872C1.92143 7.71259 2.58531 9.28965 3.65536 10.7478C4.72751 12.2089 6.17011 13.498 7.6274 14.5915C8.17883 15.0053 8.69823 15.3573 9.1425 15.6024C9.61964 15.8656 9.896 15.9397 10 15.9397C10.104 15.9397 10.3804 15.8656 10.8575 15.6024C11.3018 15.3573 11.8212 15.0053 12.3726 14.5915C13.8299 13.498 15.2725 12.2089 16.3446 10.7478C17.4147 9.28965 18.0786 7.71259 18.0786 6.01872C18.0786 3.90581 16.3283 2.06034 14.0114 2.06034C12.6808 2.06034 11.4383 2.92137 10.6625 4.01422C10.5043 4.23706 10.2595 4.36765 10 4.36765C9.74047 4.36765 9.49568 4.23706 9.33749 4.01422C8.56168 2.92137 7.3192 2.06034 5.98857 2.06034Z" fill="black"/>
</svg>
