<svg width="20" height="19" viewBox="0 0 20 19" fill="none" xmlns="http://www.w3.org/2000/svg">
<path d="M5.99989 5.25C6.41411 5.25 6.74989 5.58579 6.74989 6V7.25H7.99989C8.41411 7.25 8.74989 7.58579 8.74989 8C8.74989 8.41421 8.41411 8.75 7.99989 8.75H6.74989V10C6.74989 10.4142 6.41411 10.75 5.99989 10.75C5.58568 10.75 5.24989 10.4142 5.24989 10V8.75H3.99989C3.58568 8.75 3.24989 8.41421 3.24989 8C3.24989 7.58579 3.58568 7.25 3.99989 7.25H5.24989V6C5.24989 5.58579 5.58568 5.25 5.99989 5.25Z" fill="black"/>
<path d="M14.9999 9.75C14.9999 9.19771 14.5522 8.75 13.9999 8.75C13.4476 8.75 12.9999 9.19771 12.9999 9.75V10C12.9999 10.5523 13.4476 11 13.9999 11C14.5522 11 14.9999 10.5523 14.9999 10V9.75Z" fill="black"/>
<path d="M13.9999 5C14.5522 5 14.9999 5.44772 14.9999 6V6.25C14.9999 6.80228 14.5522 7.25 13.9999 7.25C13.4476 7.25 12.9999 6.80228 12.9999 6.25V6C12.9999 5.44772 13.4476 5 13.9999 5Z" fill="black"/>
<path d="M16.9999 8C16.9999 8.55229 16.5522 9 15.9999 9H15.7499C15.1976 9 14.7499 8.55228 14.7499 8C14.7499 7.44771 15.1976 7 15.7499 7H15.9999C16.5522 7 16.9999 7.44772 16.9999 8Z" fill="black"/>
<path d="M12.2499 9C12.8022 9 13.2499 8.55229 13.2499 8C13.2499 7.44772 12.8022 7 12.2499 7H11.9999C11.4476 7 10.9999 7.44771 10.9999 8C10.9999 8.55228 11.4476 9 11.9999 9H12.2499Z" fill="black"/>
<path fill-rule="evenodd" clip-rule="evenodd" d="M10.7499 1C10.7499 0.585786 10.4141 0.25 9.99989 0.25C9.58568 0.25 9.24989 0.585786 9.24989 1V2.48688C7.81079 2.50654 6.37227 2.58282 4.93767 2.71571L4.60607 2.74642C2.21436 2.96797 0.372681 4.95407 0.331978 7.35566L0.319886 8.06912C0.272582 10.8602 0.497563 13.6492 0.991637 16.3967C1.2366 17.7588 2.42193 18.75 3.80594 18.75H4.02699C5.26235 18.75 6.38166 18.022 6.88252 16.8927L7.94312 14.5014C8.73423 12.7177 11.2656 12.7177 12.0567 14.5014L13.1173 16.8927C13.6181 18.022 14.7374 18.75 15.9728 18.75H16.1939C17.5779 18.75 18.7632 17.7588 19.0082 16.3967C19.5022 13.6492 19.7272 10.8602 19.6799 8.06912L19.6678 7.35566C19.6271 4.95406 17.7854 2.96797 15.3937 2.74643L15.0621 2.71571C13.6275 2.58282 12.189 2.50654 10.7499 2.48688V1ZM5.07602 4.20931C8.35159 3.9059 11.6482 3.9059 14.9238 4.20931L15.2554 4.24003C16.8852 4.39101 18.1403 5.74447 18.168 7.38108L18.1801 8.09454C18.2258 10.7881 18.0086 13.4797 17.5318 16.1312C17.4154 16.7788 16.8518 17.25 16.1939 17.25H15.9728C15.3306 17.25 14.7488 16.8716 14.4885 16.2846L13.4279 13.8933C12.1093 10.9205 7.89046 10.9205 6.57194 13.8933L5.51134 16.2846C5.25098 16.8716 4.66914 17.25 4.02699 17.25H3.80594C3.14795 17.25 2.58441 16.7788 2.46795 16.1312C1.99114 13.4797 1.77402 10.7881 1.81967 8.09454L1.83176 7.38108C1.8595 5.74447 3.11455 4.39101 4.74442 4.24003L5.07602 4.20931Z" fill="black"/>
</svg>
