<svg width="16" height="16" viewBox="0 0 16 16" fill="none" xmlns="http://www.w3.org/2000/svg">
<path d="M8.07068 3.32172C7.24521 3.32276 6.45385 3.65114 5.87015 4.23484C5.28646 4.81853 4.95808 5.60989 4.95703 6.43536H6.53997C6.53997 5.59086 7.22697 4.90466 8.07068 4.90466C8.91438 4.90466 9.60138 5.59086 9.60138 6.43536C9.60138 6.90866 9.22068 7.25216 8.63895 7.72229C8.44891 7.87117 8.26638 8.02939 8.09205 8.19638C7.30216 8.98548 7.27921 9.82365 7.27921 9.91704V10.445H8.86215L8.86136 9.94395C8.86215 9.93129 8.88747 9.63844 9.21039 9.31631C9.32911 9.19759 9.4787 9.07887 9.63383 8.95382C10.2504 8.4544 11.1835 7.70013 11.1835 6.43536C11.1829 5.6099 10.8548 4.81842 10.2712 4.23466C9.68754 3.65089 8.89614 3.32255 8.07068 3.32172ZM7.27921 11.2364H8.86215V12.8194H7.27921V11.2364Z" fill="black"/>
<path d="M8.07047 0.155884C3.7063 0.155884 0.155762 3.70642 0.155762 8.07059C0.155762 12.4348 3.7063 15.9853 8.07047 15.9853C12.4346 15.9853 15.9852 12.4348 15.9852 8.07059C15.9852 3.70642 12.4346 0.155884 8.07047 0.155884ZM8.07047 14.4024C4.57929 14.4024 1.7387 11.5618 1.7387 8.07059C1.7387 4.57941 4.57929 1.73882 8.07047 1.73882C11.5616 1.73882 14.4022 4.57941 14.4022 8.07059C14.4022 11.5618 11.5616 14.4024 8.07047 14.4024Z" fill="black"/>
</svg>