<svg width="17" height="19" viewBox="0 0 17 19" fill="none" xmlns="http://www.w3.org/2000/svg">
<path d="M11.791 4.2306C12.0779 4.52941 12.0682 5.00419 11.7694 5.29104L8.6444 8.29104C8.35418 8.56965 7.89582 8.56965 7.6056 8.29104L5.7306 6.49104C5.43179 6.20419 5.4221 5.72941 5.70896 5.4306C5.99582 5.13179 6.47059 5.1221 6.7694 5.40896L8.125 6.71034L10.7306 4.20896C11.0294 3.9221 11.5042 3.93179 11.791 4.2306Z" fill="black"/>
<path fill-rule="evenodd" clip-rule="evenodd" d="M0 4.75C0 2.12665 2.12665 0 4.75 0H14.75C15.7165 0 16.5 0.783502 16.5 1.75V16.75C16.5 17.7165 15.7165 18.5 14.75 18.5H3.75C1.67893 18.5 0 16.8211 0 14.75V4.75ZM1.5 11.7497C2.12675 11.279 2.9058 11 3.75 11H15V1.75C15 1.61193 14.8881 1.5 14.75 1.5H4.75C2.95507 1.5 1.5 2.95507 1.5 4.75V11.7497ZM1.5 14.75C1.5 15.9926 2.50736 17 3.75 17H14.75C14.8881 17 15 16.8881 15 16.75V12.5H3.75C2.50736 12.5 1.5 13.5074 1.5 14.75Z" fill="black"/>
</svg>
